<svg width="144" height="241" viewBox="0 0 144 241" fill="none" xmlns="http://www.w3.org/2000/svg">
<mask id="path-1-inside-1_22_8" fill="white">
<path fill-rule="evenodd" clip-rule="evenodd" d="M46.3683 205.394C54.9149 209.901 63.1858 212.775 69.7079 214.237C71.0224 210.727 72.6519 207.719 74.5009 205.116L46.3683 205.394ZM20.3384 185.65C8.18199 172.444 -0.664341 154.361 0.039189 130.47H0.13289C-0.335628 119.759 3.97475 92.8182 25.0112 71.0196C51.342 43.7579 57.2922 34.6529 56.2146 0C65.8192 6.42711 85.0285 25.762 85.497 51.4169C85.1592 60.0655 83.8039 68.6226 81.4677 76.8576C77.6727 89.6047 83.9509 100.317 93.3213 100.852C102.785 101.334 109.719 93.8358 110.328 80.6067C117.825 89.1762 132.536 112.314 131.224 136.523C129.538 166.784 116.372 177.603 108.173 183.333C107.442 183.847 106.642 184.334 105.785 184.806L20.3384 185.65Z"/>
</mask>
<path fill-rule="evenodd" clip-rule="evenodd" d="M46.3683 205.394C54.9149 209.901 63.1858 212.775 69.7079 214.237C71.0224 210.727 72.6519 207.719 74.5009 205.116L46.3683 205.394ZM20.3384 185.65C8.18199 172.444 -0.664341 154.361 0.039189 130.47H0.13289C-0.335628 119.759 3.97475 92.8182 25.0112 71.0196C51.342 43.7579 57.2922 34.6529 56.2146 0C65.8192 6.42711 85.0285 25.762 85.497 51.4169C85.1592 60.0655 83.8039 68.6226 81.4677 76.8576C77.6727 89.6047 83.9509 100.317 93.3213 100.852C102.785 101.334 109.719 93.8358 110.328 80.6067C117.825 89.1762 132.536 112.314 131.224 136.523C129.538 166.784 116.372 177.603 108.173 183.333C107.442 183.847 106.642 184.334 105.785 184.806L20.3384 185.65Z" fill="#145858"/>
<path d="M69.7079 214.237L69.4892 215.213L70.339 215.403L70.6444 214.588L69.7079 214.237ZM46.3683 205.394L46.3584 204.394L45.9018 206.278L46.3683 205.394ZM74.5009 205.116L75.3162 205.695L76.4514 204.096L74.491 204.116L74.5009 205.116ZM20.3384 185.65L19.6027 186.327L19.9038 186.654L20.3483 186.65L20.3384 185.65ZM0.039189 130.47V129.47H-0.931797L-0.960378 130.441L0.039189 130.47ZM0.13289 130.47V131.47H1.17758L1.13194 130.427L0.13289 130.47ZM25.0112 71.0196L24.292 70.3249L24.2917 70.3252L25.0112 71.0196ZM56.2146 0L56.7707 -0.83109L55.1546 -1.91253L55.2151 0.0310818L56.2146 0ZM85.497 51.4169L86.4962 51.4559L86.4973 51.4273L86.4968 51.3986L85.497 51.4169ZM81.4677 76.8576L82.4262 77.1429L82.4298 77.1305L81.4677 76.8576ZM93.3213 100.852L93.2642 101.851L93.2704 101.851L93.3213 100.852ZM110.328 80.6067L111.081 79.9483L109.444 78.0767L109.33 80.5607L110.328 80.6067ZM131.224 136.523L132.223 136.578L132.223 136.577L131.224 136.523ZM108.173 183.333L107.6 182.514L107.598 182.515L108.173 183.333ZM105.785 184.806L105.795 185.806L106.046 185.803L106.267 185.682L105.785 184.806ZM69.9266 213.261C63.4935 211.819 55.3057 208.976 46.8347 204.509L45.9018 206.278C54.5241 210.825 62.8781 213.731 69.4892 215.213L69.9266 213.261ZM73.6856 204.537C71.7858 207.212 70.1158 210.296 68.7714 213.886L70.6444 214.588C71.929 211.158 73.5181 208.226 75.3162 205.695L73.6856 204.537ZM74.491 204.116L46.3584 204.394L46.3781 206.394L74.5108 206.116L74.491 204.116ZM21.0742 184.972C9.07321 171.935 0.343791 154.1 1.03876 130.5L-0.960378 130.441C-1.67247 154.623 7.29076 172.952 19.6027 186.327L21.0742 184.972ZM0.039189 131.47H0.13289V129.47H0.039189V131.47ZM1.13194 130.427C0.673012 119.934 4.9196 93.2792 25.7308 71.714L24.2917 70.3252C3.02989 92.3573 -1.34427 119.583 -0.866154 130.514L1.13194 130.427ZM25.7305 71.7143C38.8795 58.1004 47.0723 48.8941 51.7982 38.7022C56.5421 28.4717 57.7543 17.3421 57.2141 -0.0310818L55.2151 0.0310818C55.7524 17.3107 54.5283 28.0602 49.9838 37.8608C45.4214 47.7 37.4737 56.6771 24.292 70.3249L25.7305 71.7143ZM55.6584 0.83109C60.3563 3.97475 67.4682 10.3254 73.457 19.0634C79.442 27.7959 84.2674 38.856 84.4972 51.4352L86.4968 51.3986C86.258 38.3229 81.2445 26.8881 75.1067 17.9327C68.9725 8.98268 61.6775 2.45236 56.7707 -0.83109L55.6584 0.83109ZM84.4977 51.3779C84.163 59.9482 82.82 68.4268 80.5057 76.5846L82.4298 77.1305C84.7878 68.8185 86.1554 60.1828 86.4962 51.4559L84.4977 51.3779ZM80.5093 76.5722C78.5479 83.1605 79.1684 89.2981 81.5711 93.8972C83.977 98.5023 88.1796 101.56 93.2642 101.85L93.3783 99.8538C89.0926 99.6088 85.4709 97.0426 83.3438 92.9711C81.2136 88.8936 80.5926 83.3018 82.4261 77.1429L80.5093 76.5722ZM93.2704 101.851C98.3049 102.107 102.705 100.23 105.903 96.5244C109.081 92.8409 111.016 87.4218 111.327 80.6527L109.33 80.5607C109.032 87.0208 107.195 91.9654 104.388 95.2178C101.601 98.4478 97.8017 100.079 93.3721 99.8534L93.2704 101.851ZM109.576 81.2651C113.259 85.4761 118.758 93.3195 123.168 103.111C127.578 112.903 130.87 124.576 130.226 136.468L132.223 136.577C132.89 124.261 129.483 112.261 124.991 102.289C120.5 92.317 114.894 84.3068 111.081 79.9483L109.576 81.2651ZM130.226 136.467C129.391 151.454 125.718 161.555 121.294 168.595C116.87 175.635 111.653 179.681 107.6 182.514L108.746 184.153C112.893 181.255 118.358 177.026 122.988 169.659C127.618 162.291 131.372 151.852 132.223 136.578L130.226 136.467ZM107.598 182.515C106.904 183.003 106.137 183.471 105.303 183.929L106.267 185.682C107.148 185.197 107.98 184.691 108.748 184.152L107.598 182.515ZM20.3483 186.65L105.795 185.806L105.775 183.806L20.3285 184.65L20.3483 186.65Z" fill="#D5D5D5" mask="url(#path-1-inside-1_22_8)"/>
<mask id="path-3-inside-2_22_8" fill="white">
<path fill-rule="evenodd" clip-rule="evenodd" d="M12.0392 156.47C10.4462 210.565 57.8135 234.881 81.7079 240.237C87.7537 224.093 100.464 218.57 110.54 214.191L110.578 214.175C114.289 212.568 117.643 211.112 120.173 209.333C128.372 203.603 141.538 192.784 143.224 162.523C144.536 138.314 129.825 115.176 122.328 106.607C121.719 119.836 114.785 127.334 105.321 126.852C95.9509 126.317 89.6727 115.605 93.4677 102.858C94.4161 99.5146 95.2028 96.1186 95.8254 92.6849L40.6489 93.2299C39.4819 94.4548 38.2699 95.7165 37.0112 97.0196C15.9747 118.818 11.6644 145.759 12.1329 156.47H12.0392ZM57.8334 73.0592L97.1951 72.6704C94.6589 49.3897 77.2174 32.0244 68.2146 26C68.9126 48.4464 66.6619 60.1734 57.8334 73.0592Z"/>
</mask>
<path fill-rule="evenodd" clip-rule="evenodd" d="M12.0392 156.47C10.4462 210.565 57.8135 234.881 81.7079 240.237C87.7537 224.093 100.464 218.57 110.54 214.191L110.578 214.175C114.289 212.568 117.643 211.112 120.173 209.333C128.372 203.603 141.538 192.784 143.224 162.523C144.536 138.314 129.825 115.176 122.328 106.607C121.719 119.836 114.785 127.334 105.321 126.852C95.9509 126.317 89.6727 115.605 93.4677 102.858C94.4161 99.5146 95.2028 96.1186 95.8254 92.6849L40.6489 93.2299C39.4819 94.4548 38.2699 95.7165 37.0112 97.0196C15.9747 118.818 11.6644 145.759 12.1329 156.47H12.0392ZM57.8334 73.0592L97.1951 72.6704C94.6589 49.3897 77.2174 32.0244 68.2146 26C68.9126 48.4464 66.6619 60.1734 57.8334 73.0592Z" fill="#C8E0CA"/>
<path d="M81.7079 240.237L81.4892 241.213L82.339 241.403L82.6444 240.588L81.7079 240.237ZM12.0392 156.47V155.47H11.0682L11.0396 156.441L12.0392 156.47ZM110.54 214.191L110.142 213.274L110.142 213.274L110.54 214.191ZM110.578 214.175L110.181 213.257L110.18 213.258L110.578 214.175ZM120.173 209.333L119.6 208.514L119.598 208.515L120.173 209.333ZM143.224 162.523L144.223 162.578L144.223 162.577L143.224 162.523ZM122.328 106.607L123.081 105.948L121.444 104.077L121.33 106.561L122.328 106.607ZM105.321 126.852L105.264 127.851L105.27 127.851L105.321 126.852ZM93.4677 102.858L94.4262 103.143L94.4298 103.13L93.4677 102.858ZM95.8254 92.6849L96.8094 92.8633L97.0252 91.673L95.8156 91.6849L95.8254 92.6849ZM40.6489 93.2299L40.639 92.2299L40.2164 92.2341L39.9248 92.5401L40.6489 93.2299ZM37.0112 97.0196L36.292 96.3249L36.2917 96.3252L37.0112 97.0196ZM12.1329 156.47V157.47H13.1776L13.1319 156.427L12.1329 156.47ZM57.8334 73.0592L57.0085 72.494L55.9232 74.0781L57.8433 74.0591L57.8334 73.0592ZM97.1951 72.6704L97.205 73.6703L98.3088 73.6594L98.1893 72.5621L97.1951 72.6704ZM68.2146 26L68.7707 25.1689L67.1546 24.0875L67.2151 26.0311L68.2146 26ZM81.9266 239.261C70.1226 236.615 52.4744 229.269 37.9942 215.896C23.5398 202.548 12.2522 183.211 13.0388 156.5L11.0396 156.441C10.2332 183.825 21.8328 203.694 36.6373 217.365C51.4161 231.014 69.3988 238.503 81.4892 241.213L81.9266 239.261ZM110.142 213.274C100.071 217.65 86.9783 223.312 80.7714 239.886L82.6444 240.588C88.529 224.874 100.857 219.49 110.939 215.109L110.142 213.274ZM110.18 213.258L110.142 213.274L110.939 215.109L110.976 215.092L110.18 213.258ZM119.598 208.515C117.169 210.222 113.92 211.638 110.181 213.257L110.975 215.093C114.657 213.499 118.117 212.001 120.748 210.152L119.598 208.515ZM142.226 162.467C141.391 177.454 137.718 187.555 133.294 194.595C128.87 201.635 123.653 205.681 119.6 208.514L120.746 210.153C124.893 207.255 130.358 203.026 134.988 195.659C139.618 188.291 143.372 177.852 144.223 162.578L142.226 162.467ZM121.576 107.265C125.259 111.476 130.758 119.319 135.168 129.111C139.578 138.903 142.87 150.576 142.226 162.468L144.223 162.577C144.89 150.261 141.483 138.261 136.991 128.289C132.5 118.317 126.894 110.307 123.081 105.948L121.576 107.265ZM105.27 127.851C110.305 128.107 114.705 126.23 117.903 122.524C121.081 118.841 123.016 113.422 123.327 106.653L121.33 106.561C121.032 113.021 119.195 117.965 116.388 121.218C113.601 124.448 109.802 126.079 105.372 125.853L105.27 127.851ZM92.5093 102.572C90.5479 109.16 91.1684 115.298 93.5711 119.897C95.977 124.502 100.18 127.56 105.264 127.85L105.378 125.854C101.093 125.609 97.4709 123.043 95.3438 118.971C93.2136 114.894 92.5926 109.302 94.4261 103.143L92.5093 102.572ZM94.8415 92.5065C94.2246 95.9086 93.4452 99.2731 92.5057 102.585L94.4298 103.13C95.387 99.7562 96.181 96.3286 96.8094 92.8633L94.8415 92.5065ZM95.8156 91.6849L40.639 92.2299L40.6587 94.2299L95.8353 93.6848L95.8156 91.6849ZM37.7305 97.7143C38.9903 96.41 40.204 95.1467 41.3729 93.9197L39.9248 92.5401C38.7598 93.763 37.5494 95.0229 36.292 96.3249L37.7305 97.7143ZM13.1319 156.427C12.673 145.934 16.9196 119.279 37.7308 97.714L36.2917 96.3252C15.0299 118.357 10.6557 145.583 11.1338 156.514L13.1319 156.427ZM12.0392 157.47H12.1329V155.47H12.0392V157.47ZM57.8433 74.0591L97.205 73.6703L97.1853 71.6704L57.8236 72.0592L57.8433 74.0591ZM67.6584 26.8311C76.5253 32.7645 93.7087 49.9016 96.201 72.7787L98.1893 72.5621C95.609 48.8777 77.9095 31.2843 68.7707 25.1689L67.6584 26.8311ZM58.6584 73.6244C67.6583 60.4883 69.9152 48.5136 69.2141 25.9689L67.2151 26.0311C67.91 48.3791 65.6655 59.8585 57.0085 72.494L58.6584 73.6244Z" fill="#D5D5D5" mask="url(#path-3-inside-2_22_8)"/>
</svg>
